<svg xmlns="http://www.w3.org/2000/svg" viewBox="0 0 1000 1000"><path d="M698.7 554.7h114c17.1 0 36.6 12.3 44 27.8L637 621.3c20.8-23.3 41.7-45 61.7-66.6zm-388.7 0H190.7L383.4 666l22.7-4c-31.4-39.7-65-73.6-96.1-107.3zM541 757l245.5 141.7H969c17.2 0 25.5-12.7 18.4-28.4L876.7 626.6 591.1 677c-18 24.1-35 50.4-50.1 80zm-44.4 46.6l164.8 95.1H31c-17.3 0-25.6-12.7-18.4-28.4l45.1-99.2 293.1-51.7 138.7 80.1c2.1 1.8 4.5 3.2 7.1 4.1zM81.2 719.3l56-123.2 150.3 86.8-206.3 36.4zm433.6-20.6c-5.5 13.5-24.5 13.4-30-.1C423.7 549 300.6 508 277.1 374.7c-23.2-131.2 67.8-259.8 200.7-272.3 135.1-12.8 248.8 93 248.8 225.3 0 172.7-144 205-211.8 371zm104.8-371.1c0-66-53.6-119.5-119.7-119.5s-119.7 53.5-119.7 119.5 53.6 119.5 119.7 119.5c66.1.1 119.7-53.4 119.7-119.5z"/></svg>